<?xml version="1.0" encoding="utf-8"?>
<!-- Generator: Adobe Illustrator 16.0.0, SVG Export Plug-In . SVG Version: 6.00 Build 0)  -->
<!DOCTYPE svg PUBLIC "-//W3C//DTD SVG 1.1//EN" "http://www.w3.org/Graphics/SVG/1.1/DTD/svg11.dtd">
<svg version="1.1" xmlns="http://www.w3.org/2000/svg" xmlns:xlink="http://www.w3.org/1999/xlink" x="0px" y="0px"
	 width="171.255px" height="139.188px" viewBox="0 0 171.255 139.188" enable-background="new 0 0 171.255 139.188"
	 xml:space="preserve">
<g id="Layer_2">
	<g>
		<linearGradient id="SVGID_1_" gradientUnits="userSpaceOnUse" x1="85.6279" y1="105.5537" x2="85.6279" y2="49.9458">
			<stop  offset="0" style="stop-color:#385EAD"/>
			<stop  offset="1" style="stop-color:#50ACE4"/>
		</linearGradient>
		<polygon fill="url(#SVGID_1_)" points="0,105.554 45.111,49.945 85.628,93.968 126.146,49.945 171.255,105.554 127.894,93.126 
			132.128,82.46 85.628,105.554 39.128,82.46 43.362,93.126 		"/>
		<linearGradient id="SVGID_2_" gradientUnits="userSpaceOnUse" x1="85.6279" y1="93.9678" x2="85.6279" y2="4.882813e-004">
			<stop  offset="0" style="stop-color:#2F4199"/>
			<stop  offset="1" style="stop-color:#4DA4DE"/>
		</linearGradient>
		<polygon fill="url(#SVGID_2_)" points="45.111,49.945 76.041,61.206 54.746,38.068 85.628,0 116.509,38.068 95.214,61.206 
			126.146,49.945 85.628,93.968 		"/>
	</g>
	<g>
		<linearGradient id="SVGID_3_" gradientUnits="userSpaceOnUse" x1="7.0571" y1="139.1875" x2="7.0571" y2="116.6211">
			<stop  offset="0" style="stop-color:#385EAD"/>
			<stop  offset="1" style="stop-color:#50ACE4"/>
		</linearGradient>
		<path fill="url(#SVGID_3_)" d="M1.459,139.188H0l7.036-22.566l7.078,22.566h-1.458l-5.62-17.848L1.459,139.188z"/>
		<linearGradient id="SVGID_4_" gradientUnits="userSpaceOnUse" x1="24.1738" y1="139.1875" x2="24.1738" y2="116.6211">
			<stop  offset="0" style="stop-color:#385EAD"/>
			<stop  offset="1" style="stop-color:#50ACE4"/>
		</linearGradient>
		<path fill="url(#SVGID_4_)" d="M23.638,127.818l7.593,11.369h-1.716l-8.451-12.699h1.716c1.144,0,2.131-0.414,2.96-1.244
			c0.829-0.829,1.244-1.83,1.244-3.003c0-1.172-0.415-2.167-1.244-2.981c-0.83-0.814-1.817-1.223-2.96-1.223h-4.247v21.15h-1.416
			v-22.566h5.663c1.545,0,2.867,0.552,3.969,1.651c1.101,1.102,1.651,2.424,1.651,3.969c0,1.401-0.45,2.632-1.351,3.69
			C26.147,126.988,25.011,127.619,23.638,127.818z"/>
		<linearGradient id="SVGID_5_" gradientUnits="userSpaceOnUse" x1="39.875" y1="139.1875" x2="39.875" y2="116.6211">
			<stop  offset="0" style="stop-color:#385EAD"/>
			<stop  offset="1" style="stop-color:#50ACE4"/>
		</linearGradient>
		<path fill="url(#SVGID_5_)" d="M45.517,118.037h-9.868v9.138h7.036v1.415h-7.036v9.182h9.868v1.416H34.233v-22.566h11.283V118.037
			z"/>
		<linearGradient id="SVGID_6_" gradientUnits="userSpaceOnUse" x1="56.1128" y1="139.1875" x2="56.1128" y2="116.6211">
			<stop  offset="0" style="stop-color:#385EAD"/>
			<stop  offset="1" style="stop-color:#50ACE4"/>
		</linearGradient>
		<path fill="url(#SVGID_6_)" d="M62.291,116.621h1.416v22.566l-13.771-18.362v18.362H48.52v-22.566l13.771,18.319V116.621z"/>
		<linearGradient id="SVGID_7_" gradientUnits="userSpaceOnUse" x1="73.7656" y1="139.1875" x2="73.7656" y2="116.6211">
			<stop  offset="0" style="stop-color:#385EAD"/>
			<stop  offset="1" style="stop-color:#50ACE4"/>
		</linearGradient>
		<path fill="url(#SVGID_7_)" d="M68.167,139.188h-1.458l7.036-22.566l7.078,22.566h-1.458l-5.62-17.848L68.167,139.188z"/>
		<linearGradient id="SVGID_8_" gradientUnits="userSpaceOnUse" x1="104.1816" y1="139.1875" x2="104.1816" y2="116.6211">
			<stop  offset="0" style="stop-color:#385EAD"/>
			<stop  offset="1" style="stop-color:#50ACE4"/>
		</linearGradient>
		<path fill="url(#SVGID_8_)" d="M109.781,116.621h1.458l-7.078,22.566l-7.036-22.566h1.459l5.577,17.847L109.781,116.621z"/>
		<linearGradient id="SVGID_9_" gradientUnits="userSpaceOnUse" x1="121.2979" y1="139.1875" x2="121.2979" y2="116.6211">
			<stop  offset="0" style="stop-color:#385EAD"/>
			<stop  offset="1" style="stop-color:#50ACE4"/>
		</linearGradient>
		<path fill="url(#SVGID_9_)" d="M115.7,139.188h-1.458l7.036-22.566l7.078,22.566h-1.458l-5.62-17.848L115.7,139.188z"/>
		<linearGradient id="SVGID_10_" gradientUnits="userSpaceOnUse" x1="136.9995" y1="139.1875" x2="136.9995" y2="116.6211">
			<stop  offset="0" style="stop-color:#385EAD"/>
			<stop  offset="1" style="stop-color:#50ACE4"/>
		</linearGradient>
		<path fill="url(#SVGID_10_)" d="M141.225,116.621h1.416v16.902c0,1.573-0.552,2.911-1.651,4.012
			c-1.102,1.102-2.432,1.652-3.99,1.652c-1.559,0-2.889-0.551-3.99-1.652c-1.101-1.101-1.652-2.438-1.652-4.012v-16.902h1.416
			v16.902c0,1.174,0.415,2.175,1.245,3.004c0.829,0.83,1.823,1.244,2.981,1.244s2.151-0.414,2.981-1.244
			c0.829-0.829,1.244-1.83,1.244-3.004V116.621z"/>
		<linearGradient id="SVGID_11_" gradientUnits="userSpaceOnUse" x1="151.2847" y1="139.1875" x2="151.2847" y2="116.5781">
			<stop  offset="0" style="stop-color:#385EAD"/>
			<stop  offset="1" style="stop-color:#50ACE4"/>
		</linearGradient>
		<path fill="url(#SVGID_11_)" d="M147.059,137.771h9.867v1.416h-11.283v-22.609h1.416V137.771z"/>
		<linearGradient id="SVGID_12_" gradientUnits="userSpaceOnUse" x1="165.6138" y1="139.1875" x2="165.6138" y2="116.6211">
			<stop  offset="0" style="stop-color:#385EAD"/>
			<stop  offset="1" style="stop-color:#50ACE4"/>
		</linearGradient>
		<path fill="url(#SVGID_12_)" d="M159.972,116.621h11.283v1.416h-4.934v21.15h-1.416v-21.15h-4.934V116.621z"/>
	</g>
</g>
<g id="Layer_4">
</g>
</svg>
