<?xml version="1.0" encoding="utf-8"?>
<!-- Generator: Adobe Illustrator 16.0.0, SVG Export Plug-In . SVG Version: 6.00 Build 0)  -->
<!DOCTYPE svg PUBLIC "-//W3C//DTD SVG 1.1//EN" "http://www.w3.org/Graphics/SVG/1.1/DTD/svg11.dtd">
<svg version="1.1" id="Layer_1" xmlns="http://www.w3.org/2000/svg" xmlns:xlink="http://www.w3.org/1999/xlink" x="0px" y="0px"
	 width="24px" height="24px" viewBox="259.833 381.626 24 24" enable-background="new 259.833 381.626 24 24" xml:space="preserve">
<polygon fill="none" points="265.899,397.975 265.899,397.975 265.899,397.975 "/>
<path fill="none" d="M266.155,397.953l0.005,0.069c0.016,0.196,0.03,0.374,0.056,0.521c0.008,0.048,0.017,0.085,0.025,0.113
	l0.419,0.146c0.648,0.209,1.148,0.369,1.632,0.647c0.679,0.389,1.182,0.965,1.582,1.813c0.198,0.423,0.392,0.688,0.627,0.855
	c0.299,0.211,0.717,0.311,1.314,0.311c1.173-0.016,1.446-0.331,1.795-0.846c0.079-0.117,0.152-0.238,0.228-0.363
	c0.14-0.233,0.273-0.452,0.435-0.668c0.398-0.535,0.882-0.892,1.436-1.059c0.761-0.229,1.004-0.495,1.152-0.748
	c0.144-0.243,0.219-0.568,0.308-0.946l0.083-0.343c0.145-0.576,0.431-1.403,1.25-1.952c0.511-0.34,1.185-0.525,2.107-0.578
	c-0.021-0.642-0.085-1.334-0.31-1.876c-0.252-0.614-0.689-1.229-2.173-1.566c-0.46-0.105-0.88-0.387-1.215-0.814
	c-0.271-0.35-0.448-0.743-0.584-1.082c-0.123-0.307-0.235-0.638-0.351-0.979c-0.146-0.429-0.291-0.857-0.469-1.276
	c-0.346-0.815-0.734-1.378-1.221-1.774c-0.618-0.502-1.397-0.736-2.455-0.736c-1.094,0-1.921,0.23-2.531,0.706
	c-0.475,0.371-0.834,0.89-1.168,1.685c-0.162,0.382-0.293,0.784-0.421,1.173l-0.023,0.072c-0.113,0.344-0.225,0.68-0.35,0.997
	c-0.294,0.744-0.758,1.643-1.75,1.992c-1.351,0.479-2.168,1.37-2.43,2.652c0.789,0.166,1.387,0.44,1.824,0.835
	c0.567,0.513,0.916,1.199,1.065,2.097C266.104,397.354,266.13,397.668,266.155,397.953z M272.625,387.413
	c0.819,0,1.46,0.815,1.46,1.855c0,1.042-0.641,1.858-1.46,1.858c-0.819,0-1.461-0.816-1.461-1.858
	C271.165,388.228,271.806,387.413,272.625,387.413z M269.457,387.413c0.819,0,1.46,0.815,1.46,1.855c0,1.042-0.641,1.858-1.46,1.858
	c-0.82,0-1.461-0.816-1.461-1.858C267.996,388.228,268.637,387.413,269.457,387.413z"/>
<polygon fill="none" points="264.215,398.085 264.213,398.086 264.215,398.086 "/>
<path fill="#E72A3D" d="M272.625,391.126c0.819,0,1.46-0.816,1.46-1.858c0-1.041-0.641-1.855-1.46-1.855
	c-0.819,0-1.461,0.815-1.461,1.855C271.165,390.311,271.806,391.126,272.625,391.126z"/>
<path fill="#E72A3D" d="M282.329,392.217c-0.423-1.026-1.411-2.359-3.69-2.892c-0.046-0.061-0.144-0.211-0.277-0.541
	c-0.098-0.248-0.193-0.534-0.294-0.843c-0.14-0.421-0.313-0.944-0.536-1.468c-0.488-1.144-1.097-2.001-1.863-2.622
	c-0.999-0.812-2.29-1.223-3.835-1.223c-1.571,0-2.875,0.396-3.877,1.176c-0.784,0.611-1.371,1.423-1.846,2.557
	c-0.207,0.491-0.369,0.984-0.518,1.436c-0.103,0.312-0.198,0.603-0.3,0.859c-0.245,0.62-0.41,0.704-0.442,0.715
	c-2.515,0.891-4.015,2.998-4.015,5.635c0,0.581,0.455,1.063,1.036,1.098c0.781,0.042,1.348,0.204,1.638,0.467
	c0.201,0.184,0.31,0.424,0.377,0.831c0.034,0.202,0.051,0.415,0.067,0.629l0.006,0.077c0.023,0.274,0.047,0.553,0.096,0.823
	c0.049,0.277,0.134,0.64,0.355,0.982c0.239,0.372,0.604,0.655,1.033,0.8l0.307,0.099c0.64,0.212,1.145,0.38,1.45,0.554
	c0.229,0.13,0.389,0.27,0.599,0.654l0,0.006l0.087,0.185c0.361,0.761,0.789,1.301,1.346,1.697c0.675,0.478,1.548,0.721,2.593,0.721
	h0.003l0.091-0.002c1.549-0.02,2.698-0.61,3.511-1.809c0.12-0.178,0.228-0.352,0.327-0.515c0.101-0.164,0.193-0.316,0.286-0.44
	c0.151-0.202,0.214-0.233,0.292-0.258c1.119-0.336,1.933-0.926,2.419-1.751c0.331-0.562,0.457-1.121,0.56-1.577l0.067-0.291
	c0.12-0.469,0.198-0.564,0.337-0.657c0.138-0.092,0.509-0.247,1.44-0.247c0.16,0,0.331,0.004,0.574,0.017
	c0.283,0,0.551-0.106,0.757-0.3c0.228-0.217,0.343-0.513,0.343-0.882C282.833,394.753,282.833,393.437,282.329,392.217z
	 M264.984,394.936c-0.437-0.396-1.036-0.669-1.824-0.835c0.262-1.282,1.079-2.174,2.43-2.652c0.992-0.35,1.456-1.248,1.75-1.992
	c0.125-0.316,0.236-0.653,0.35-0.997l0.023-0.072c0.128-0.389,0.259-0.791,0.421-1.173c0.334-0.795,0.694-1.314,1.168-1.685
	c0.609-0.476,1.437-0.706,2.531-0.706c1.057,0,1.837,0.233,2.455,0.736c0.487,0.396,0.875,0.959,1.221,1.774
	c0.178,0.418,0.323,0.847,0.469,1.276c0.116,0.342,0.228,0.673,0.351,0.979c0.136,0.339,0.313,0.732,0.584,1.082
	c0.335,0.427,0.755,0.709,1.215,0.814c1.484,0.337,1.921,0.952,2.173,1.566c0.224,0.542,0.288,1.235,0.31,1.876
	c-0.923,0.053-1.597,0.238-2.107,0.578c-0.819,0.549-1.105,1.375-1.25,1.952l-0.083,0.343c-0.088,0.378-0.164,0.703-0.308,0.946
	c-0.148,0.253-0.391,0.519-1.152,0.748c-0.554,0.167-1.038,0.523-1.436,1.059c-0.162,0.216-0.295,0.435-0.435,0.668
	c-0.076,0.125-0.149,0.246-0.228,0.363c-0.349,0.515-0.622,0.83-1.795,0.846c-0.598,0-1.015-0.1-1.314-0.311
	c-0.235-0.168-0.429-0.433-0.627-0.855c-0.4-0.848-0.903-1.424-1.582-1.813c-0.484-0.278-0.984-0.438-1.632-0.647l-0.419-0.146
	c-0.008-0.028-0.017-0.065-0.025-0.113c-0.026-0.146-0.041-0.324-0.056-0.521l-0.005-0.069c-0.024-0.285-0.051-0.6-0.105-0.921
	C265.9,396.135,265.551,395.449,264.984,394.936z M265.899,397.975L265.899,397.975L265.899,397.975L265.899,397.975z
	 M264.215,398.085C264.215,398.086,264.215,398.086,264.215,398.085l-0.001,0.001L264.215,398.085z"/>
<path fill="#E72A3D" d="M269.457,391.126c0.819,0,1.46-0.816,1.46-1.858c0-1.041-0.641-1.855-1.46-1.855
	c-0.82,0-1.461,0.815-1.461,1.855C267.996,390.311,268.637,391.126,269.457,391.126z"/>
</svg>
