<?xml version="1.0" encoding="utf-8"?>
<!-- Generator: Adobe Illustrator 16.0.0, SVG Export Plug-In . SVG Version: 6.00 Build 0)  -->
<!DOCTYPE svg PUBLIC "-//W3C//DTD SVG 1.1//EN" "http://www.w3.org/Graphics/SVG/1.1/DTD/svg11.dtd">
<svg version="1.1" xmlns="http://www.w3.org/2000/svg" xmlns:xlink="http://www.w3.org/1999/xlink" x="0px" y="0px"
	 width="512.004px" height="512px" viewBox="0 0 512.004 512" enable-background="new 0 0 512.004 512" xml:space="preserve">
<g id="Layer_2">
	<g>
		<g>
			<linearGradient id="SVGID_1_" gradientUnits="userSpaceOnUse" x1="256.0024" y1="511.9678" x2="256.0024" y2="0.0322">
				<stop  offset="0" style="stop-color:#2F429A"/>
				<stop  offset="1" style="stop-color:#4DA3DD"/>
			</linearGradient>
			<path fill="url(#SVGID_1_)" d="M511.97,441.968c0,38.5-31.5,70-70,70H70.034c-38.5,0-70-31.5-70-70V70.032c0-38.5,31.5-70,70-70
				H441.97c38.5,0,70,31.5,70,70V441.968z"/>
		</g>
		<g>
			<polygon fill="#FFFFFF" points="26.502,397.452 147.409,248.41 256.006,366.399 364.601,248.41 485.502,397.452 369.286,364.143 
				380.635,335.557 256.006,397.452 131.375,335.557 142.722,364.143 			"/>
			<polygon fill="#FFFFFF" points="147.409,248.41 230.308,278.592 173.233,216.578 256.006,114.547 338.771,216.578 
				281.696,278.592 364.601,248.41 256.006,366.399 			"/>
		</g>
	</g>
</g>
<g id="Layer_4">
</g>
</svg>
