<?xml version="1.0" encoding="utf-8"?>
<!-- Generator: Adobe Illustrator 16.0.0, SVG Export Plug-In . SVG Version: 6.00 Build 0)  -->
<!DOCTYPE svg PUBLIC "-//W3C//DTD SVG 1.1//EN" "http://www.w3.org/Graphics/SVG/1.1/DTD/svg11.dtd">
<svg version="1.1" id="Layer_1" xmlns="http://www.w3.org/2000/svg" xmlns:xlink="http://www.w3.org/1999/xlink" x="0px" y="0px"
	 width="47.085px" height="61.499px" viewBox="0 0 47.085 61.499" enable-background="new 0 0 47.085 61.499" xml:space="preserve">
<path fill="none" stroke="#FFFFFF" stroke-width="1.5" stroke-miterlimit="10" d="M22.914,0.783
	c-0.96,0.117-2.076,0.597-2.852,1.228c-0.223,0.178-4.387,4.314-9.26,9.192c-9.577,9.589-9.226,9.215-9.65,10.243
	c-0.307,0.736-0.407,1.266-0.402,2.137c0,0.664,0.022,0.865,0.151,1.34c0.954,3.616,5.129,5.235,8.271,3.198
	c0.358-0.229,1.234-1.077,4.667-4.505l4.23-4.213l0.017,18.357l0.011,18.362l0.123,0.447c0.631,2.326,2.462,3.918,4.772,4.152
	c2.897,0.29,5.492-1.73,5.932-4.626c0.072-0.454,0.085-3.104,0.085-18.616V19.397l4.231,4.225c4.508,4.504,4.575,4.566,5.508,4.951
	c0.783,0.329,1.201,0.413,2.092,0.418c1.09,0.006,1.843-0.178,2.72-0.669c2.83-1.58,3.64-5.247,1.758-7.948
	C45.049,19.983,27.704,2.575,27.049,2.038c-0.401-0.334-1.211-0.803-1.625-0.943C24.548,0.8,23.656,0.688,22.914,0.783z"/>
</svg>
