<?xml version="1.0" encoding="utf-8"?>
<!-- Generator: Adobe Illustrator 16.0.0, SVG Export Plug-In . SVG Version: 6.00 Build 0)  -->
<!DOCTYPE svg PUBLIC "-//W3C//DTD SVG 1.1//EN" "http://www.w3.org/Graphics/SVG/1.1/DTD/svg11.dtd">
<svg version="1.1" id="Layer_1" xmlns="http://www.w3.org/2000/svg" xmlns:xlink="http://www.w3.org/1999/xlink" x="0px" y="0px"
	 width="48.115px" height="61.5px" viewBox="0 0 48.115 61.5" enable-background="new 0 0 48.115 61.5" xml:space="preserve">
<path fill="none" stroke="#FFFFFF" stroke-width="1.5" stroke-miterlimit="10" d="M0.987,32.714
	c3.181-3.039,6.638-1.823,9.817,1.216l6.159,4.8V11.644c0-5.81,7.262-5.81,7.262,0v14.67c0-2.148,2.109-3.891,4.357-3.891
	s4.357,1.743,4.357,3.891v3.038c0-2.148,0.894-3.89,3.142-3.89s4.12,1.742,4.12,3.89v3.649c0-2.149,1.255-3.891,3.505-3.891
	c2.248,0,3.659,1.742,3.659,3.891l-2.623,13.57c0,0-3.217,14.179-14.879,14.179c-9.158,0-14.423-7.738-14.423-7.738L0.987,32.714z"
	/>
<line fill="none" stroke="#FFFFFF" stroke-width="1.5" stroke-miterlimit="10" x1="24.226" y1="24.714" x2="24.226" y2="30.524"/>
<line fill="none" stroke="#FFFFFF" stroke-width="1.5" stroke-miterlimit="10" x1="32.94" y1="29.071" x2="32.94" y2="31.976"/>
<line fill="none" stroke="#FFFFFF" stroke-width="1.5" stroke-miterlimit="10" x1="40.202" y1="31.976" x2="40.202" y2="34.88"/>
<path fill="none" stroke="#FFFFFF" stroke-width="1.5" stroke-miterlimit="10" d="M12.807,17.755
	c-1.513-1.799-2.426-4.122-2.426-6.657c0-5.715,4.633-10.348,10.348-10.348c5.716,0,10.348,4.633,10.348,10.348
	c0,2.858-1.157,5.445-3.031,7.318"/>
</svg>
