<?xml version="1.0" encoding="utf-8"?>
<!-- Generator: Adobe Illustrator 16.0.0, SVG Export Plug-In . SVG Version: 6.00 Build 0)  -->
<!DOCTYPE svg PUBLIC "-//W3C//DTD SVG 1.1//EN" "http://www.w3.org/Graphics/SVG/1.1/DTD/svg11.dtd">
<svg version="1.1" xmlns="http://www.w3.org/2000/svg" xmlns:xlink="http://www.w3.org/1999/xlink" x="0px" y="0px" width="360px"
	 height="27px" viewBox="0 0 360 27" enable-background="new 0 0 360 27" xml:space="preserve">
<g id="Layer_2">
	<polygon fill="#9D9D9D" points="0,14.573 50.333,26.573 63.667,20.573 296.334,20.573 309.667,26.573 360,14.573 	"/>
</g>
<g id="Layer_4">
	<g>
		<polygon fill="#E8223F" stroke="#FFFFFF" stroke-width="2" stroke-miterlimit="10" points="92.634,21.625 69,21.602 
			78.298,13.337 101.931,13.36 		"/>
		<polygon fill="#E8223F" stroke="#FFFFFF" stroke-width="2" stroke-miterlimit="10" points="116.269,21.648 92.634,21.625 
			101.931,13.36 125.566,13.383 		"/>
		<polygon fill="#E8223F" stroke="#FFFFFF" stroke-width="2" stroke-miterlimit="10" points="139.902,21.671 116.269,21.648 
			125.566,13.383 149.197,13.406 		"/>
	</g>
	<g>
		<path fill="#9D9D9D" d="M12.711,2.756c0-0.444,0.3-0.756,0.72-0.756s0.708,0.312,0.708,0.756c0,0.432-0.276,0.755-0.72,0.755
			C13,3.511,12.711,3.188,12.711,2.756z"/>
		<path fill="#9D9D9D" d="M20.283,2.756c0-0.444,0.3-0.756,0.72-0.756s0.708,0.312,0.708,0.756c0,0.432-0.276,0.755-0.72,0.755
			C20.571,3.511,20.283,3.188,20.283,2.756z"/>
		<path fill="#9D9D9D" d="M27.854,2.756c0-0.444,0.3-0.756,0.72-0.756s0.708,0.312,0.708,0.756c0,0.432-0.276,0.755-0.72,0.755
			C28.143,3.511,27.854,3.188,27.854,2.756z"/>
		<path fill="#9D9D9D" d="M35.426,2.756c0-0.444,0.3-0.756,0.72-0.756s0.708,0.312,0.708,0.756c0,0.432-0.276,0.755-0.72,0.755
			C35.714,3.511,35.426,3.188,35.426,2.756z"/>
		<path fill="#9D9D9D" d="M42.998,2.756c0-0.444,0.3-0.756,0.72-0.756s0.708,0.312,0.708,0.756c0,0.432-0.276,0.755-0.72,0.755
			C43.286,3.511,42.998,3.188,42.998,2.756z"/>
		<path fill="#9D9D9D" d="M50.569,2.756c0-0.444,0.3-0.756,0.72-0.756s0.708,0.312,0.708,0.756c0,0.432-0.276,0.755-0.72,0.755
			C50.857,3.511,50.569,3.188,50.569,2.756z"/>
		<path fill="#9D9D9D" d="M58.141,2.756c0-0.444,0.3-0.756,0.72-0.756s0.708,0.312,0.708,0.756c0,0.432-0.276,0.755-0.72,0.755
			C58.429,3.511,58.141,3.188,58.141,2.756z"/>
		<path fill="#9D9D9D" d="M65.712,2.756c0-0.444,0.3-0.756,0.72-0.756s0.708,0.312,0.708,0.756c0,0.432-0.276,0.755-0.72,0.755
			C66,3.511,65.712,3.188,65.712,2.756z"/>
		<path fill="#9D9D9D" d="M73.284,2.756c0-0.444,0.3-0.756,0.72-0.756s0.708,0.312,0.708,0.756c0,0.432-0.276,0.755-0.72,0.755
			C73.572,3.511,73.284,3.188,73.284,2.756z"/>
		<path fill="#9D9D9D" d="M80.856,2.756c0-0.444,0.3-0.756,0.72-0.756s0.708,0.312,0.708,0.756c0,0.432-0.276,0.755-0.72,0.755
			C81.144,3.511,80.856,3.188,80.856,2.756z"/>
		<path fill="#9D9D9D" d="M88.427,2.756c0-0.444,0.3-0.756,0.72-0.756s0.708,0.312,0.708,0.756c0,0.432-0.276,0.755-0.72,0.755
			C88.715,3.511,88.427,3.188,88.427,2.756z"/>
		<path fill="#9D9D9D" d="M95.999,2.756c0-0.444,0.3-0.756,0.72-0.756s0.708,0.312,0.708,0.756c0,0.432-0.276,0.755-0.72,0.755
			C96.287,3.511,95.999,3.188,95.999,2.756z"/>
		<path fill="#9D9D9D" d="M103.57,2.756c0-0.444,0.3-0.756,0.72-0.756s0.708,0.312,0.708,0.756c0,0.432-0.276,0.755-0.72,0.755
			C103.858,3.511,103.57,3.188,103.57,2.756z"/>
		<path fill="#9D9D9D" d="M111.142,2.756c0-0.444,0.3-0.756,0.72-0.756s0.708,0.312,0.708,0.756c0,0.432-0.276,0.755-0.72,0.755
			C111.43,3.511,111.142,3.188,111.142,2.756z"/>
		<path fill="#9D9D9D" d="M118.714,2.756c0-0.444,0.3-0.756,0.72-0.756s0.708,0.312,0.708,0.756c0,0.432-0.276,0.755-0.72,0.755
			C119.002,3.511,118.714,3.188,118.714,2.756z"/>
		<path fill="#9D9D9D" d="M126.285,2.756c0-0.444,0.3-0.756,0.72-0.756s0.708,0.312,0.708,0.756c0,0.432-0.276,0.755-0.72,0.755
			C126.573,3.511,126.285,3.188,126.285,2.756z"/>
		<path fill="#9D9D9D" d="M133.857,2.756c0-0.444,0.3-0.756,0.72-0.756s0.708,0.312,0.708,0.756c0,0.432-0.276,0.755-0.72,0.755
			C134.145,3.511,133.857,3.188,133.857,2.756z"/>
		<path fill="#9D9D9D" d="M141.429,2.756c0-0.444,0.3-0.756,0.72-0.756s0.708,0.312,0.708,0.756c0,0.432-0.276,0.755-0.72,0.755
			C141.717,3.511,141.429,3.188,141.429,2.756z"/>
		<path fill="#9D9D9D" d="M149,2.756C149,2.312,149.3,2,149.72,2s0.708,0.312,0.708,0.756c0,0.432-0.276,0.755-0.72,0.755
			C149.288,3.511,149,3.188,149,2.756z"/>
		<path fill="#9D9D9D" d="M156.572,2.756c0-0.444,0.3-0.756,0.72-0.756s0.708,0.312,0.708,0.756c0,0.432-0.276,0.755-0.72,0.755
			C156.86,3.511,156.572,3.188,156.572,2.756z"/>
		<path fill="#9D9D9D" d="M164.144,2.756c0-0.444,0.3-0.756,0.72-0.756s0.708,0.312,0.708,0.756c0,0.432-0.276,0.755-0.72,0.755
			C164.432,3.511,164.144,3.188,164.144,2.756z"/>
		<path fill="#9D9D9D" d="M171.715,2.756c0-0.444,0.3-0.756,0.72-0.756c0.419,0,0.708,0.312,0.708,0.756
			c0,0.432-0.275,0.755-0.72,0.755C172.003,3.511,171.715,3.188,171.715,2.756z"/>
		<path fill="#9D9D9D" d="M179.287,2.756c0-0.444,0.3-0.756,0.72-0.756c0.419,0,0.707,0.312,0.707,0.756
			c0,0.432-0.275,0.755-0.72,0.755C179.574,3.511,179.287,3.188,179.287,2.756z"/>
		<path fill="#9D9D9D" d="M186.859,2.756c0-0.444,0.299-0.756,0.719-0.756s0.707,0.312,0.707,0.756c0,0.432-0.275,0.755-0.719,0.755
			C187.146,3.511,186.859,3.188,186.859,2.756z"/>
		<path fill="#9D9D9D" d="M194.43,2.756c0-0.444,0.301-0.756,0.719-0.756c0.42,0,0.709,0.312,0.709,0.756
			c0,0.432-0.275,0.755-0.721,0.755C194.717,3.511,194.43,3.188,194.43,2.756z"/>
		<path fill="#9D9D9D" d="M202.002,2.756c0-0.444,0.299-0.756,0.719-0.756s0.707,0.312,0.707,0.756c0,0.432-0.275,0.755-0.719,0.755
			C202.289,3.511,202.002,3.188,202.002,2.756z"/>
		<path fill="#9D9D9D" d="M209.574,2.756c0-0.444,0.299-0.756,0.719-0.756S211,2.312,211,2.756c0,0.432-0.275,0.755-0.719,0.755
			C209.861,3.511,209.574,3.188,209.574,2.756z"/>
		<path fill="#9D9D9D" d="M217.145,2.756c0-0.444,0.301-0.756,0.719-0.756c0.42,0,0.709,0.312,0.709,0.756
			c0,0.432-0.275,0.755-0.721,0.755C217.432,3.511,217.145,3.188,217.145,2.756z"/>
		<path fill="#9D9D9D" d="M224.717,2.756c0-0.444,0.299-0.756,0.719-0.756s0.707,0.312,0.707,0.756c0,0.432-0.275,0.755-0.719,0.755
			C225.004,3.511,224.717,3.188,224.717,2.756z"/>
		<path fill="#9D9D9D" d="M232.289,2.756c0-0.444,0.299-0.756,0.719-0.756s0.707,0.312,0.707,0.756c0,0.432-0.275,0.755-0.719,0.755
			C232.576,3.511,232.289,3.188,232.289,2.756z"/>
		<path fill="#9D9D9D" d="M239.859,2.756c0-0.444,0.301-0.756,0.719-0.756c0.42,0,0.709,0.312,0.709,0.756
			c0,0.432-0.275,0.755-0.721,0.755C240.146,3.511,239.859,3.188,239.859,2.756z"/>
		<path fill="#9D9D9D" d="M247.432,2.756c0-0.444,0.299-0.756,0.719-0.756s0.707,0.312,0.707,0.756c0,0.432-0.275,0.755-0.719,0.755
			C247.719,3.511,247.432,3.188,247.432,2.756z"/>
		<path fill="#9D9D9D" d="M255.004,2.756c0-0.444,0.299-0.756,0.719-0.756s0.707,0.312,0.707,0.756c0,0.432-0.275,0.755-0.719,0.755
			C255.291,3.511,255.004,3.188,255.004,2.756z"/>
		<path fill="#9D9D9D" d="M262.574,2.756c0-0.444,0.301-0.756,0.719-0.756c0.42,0,0.709,0.312,0.709,0.756
			c0,0.432-0.275,0.755-0.721,0.755C262.861,3.511,262.574,3.188,262.574,2.756z"/>
		<path fill="#9D9D9D" d="M270.146,2.756c0-0.444,0.299-0.756,0.719-0.756s0.707,0.312,0.707,0.756c0,0.432-0.275,0.755-0.719,0.755
			C270.434,3.511,270.146,3.188,270.146,2.756z"/>
		<path fill="#9D9D9D" d="M277.717,2.756c0-0.444,0.301-0.756,0.719-0.756c0.42,0,0.709,0.312,0.709,0.756
			c0,0.432-0.275,0.755-0.721,0.755C278.004,3.511,277.717,3.188,277.717,2.756z"/>
		<path fill="#9D9D9D" d="M285.289,2.756c0-0.444,0.301-0.756,0.719-0.756c0.42,0,0.709,0.312,0.709,0.756
			c0,0.432-0.275,0.755-0.721,0.755C285.576,3.511,285.289,3.188,285.289,2.756z"/>
		<path fill="#9D9D9D" d="M292.861,2.756c0-0.444,0.299-0.756,0.719-0.756s0.707,0.312,0.707,0.756c0,0.432-0.275,0.755-0.719,0.755
			C293.148,3.511,292.861,3.188,292.861,2.756z"/>
		<path fill="#9D9D9D" d="M300.432,2.756c0-0.444,0.301-0.756,0.719-0.756c0.42,0,0.709,0.312,0.709,0.756
			c0,0.432-0.275,0.755-0.721,0.755C300.719,3.511,300.432,3.188,300.432,2.756z"/>
		<path fill="#9D9D9D" d="M308.004,2.756c0-0.444,0.301-0.756,0.719-0.756c0.42,0,0.709,0.312,0.709,0.756
			c0,0.432-0.275,0.755-0.721,0.755C308.291,3.511,308.004,3.188,308.004,2.756z"/>
		<path fill="#9D9D9D" d="M315.576,2.756c0-0.444,0.299-0.756,0.719-0.756s0.707,0.312,0.707,0.756c0,0.432-0.275,0.755-0.719,0.755
			C315.863,3.511,315.576,3.188,315.576,2.756z"/>
		<path fill="#9D9D9D" d="M323.146,2.756c0-0.444,0.301-0.756,0.719-0.756c0.42,0,0.709,0.312,0.709,0.756
			c0,0.432-0.275,0.755-0.721,0.755C323.434,3.511,323.146,3.188,323.146,2.756z"/>
		<path fill="#9D9D9D" d="M330.719,2.756c0-0.444,0.301-0.756,0.719-0.756c0.42,0,0.709,0.312,0.709,0.756
			c0,0.432-0.275,0.755-0.721,0.755C331.006,3.511,330.719,3.188,330.719,2.756z"/>
		<path fill="#9D9D9D" d="M338.291,2.756c0-0.444,0.299-0.756,0.719-0.756s0.707,0.312,0.707,0.756c0,0.432-0.275,0.755-0.719,0.755
			C338.578,3.511,338.291,3.188,338.291,2.756z"/>
		<path fill="#9D9D9D" d="M345.861,2.756c0-0.444,0.301-0.756,0.719-0.756c0.42,0,0.709,0.312,0.709,0.756
			c0,0.432-0.275,0.755-0.721,0.755C346.148,3.511,345.861,3.188,345.861,2.756z"/>
	</g>
</g>
</svg>
